<?xml version="1.0" standalone="no"?>
<svg width="4800" height="4800" title="polygons" version="1.1" viewBox="0 0 800 800" xmlns="http://www.w3.org/2000/svg" class="svg-paper"><!----> 
<g><desc>pwidth:800;pheight:800;pcolor:;seed:10};sf:i+i*7;rf:10*sin(i/2);xf:400;yf:400;qt:25;sd:5;rn:0.8;minrd:20;maxrd:50;mina:0;maxa:360;cv:curveCardinalClosed;rd:false</desc> 
<g stroke="#fff">
    <animate
      attributeName="stroke" 
   
      values="#fff;#000;#fff"
   
      dur="2s" 
      begin="0s"
      repeatCount="indefinite"
      />
<path  stroke-width="0.4mm" fill="none" d="M419.02,406.18C419.41,404.97,412.78,384.57,411.76,383.82C410.73,383.07,389.27,383.07,388.24,383.82C387.22,384.57,380.59,404.97,380.98,406.18C381.37,407.39,398.73,420,400,420C401.27,420,418.63,407.39,419.02,406.18"/>
  <circle r="5" fill="red">
    <animateMotion
      dur="10s"
      repeatCount="indefinite"
      path="M419.02,406.18C419.41,404.97,412.78,384.57,411.76,383.82C410.73,383.07,389.27,383.07,388.24,383.82C387.22,384.57,380.59,404.97,380.98,406.18C381.37,407.39,398.73,420,400,420C401.27,420,418.63,407.39,419.02,406.18" />
  </circle>
<path  stroke-width="0.4mm" fill="none" d="M427.26,406.40C427.67,404.67,416.03,376.97,414.51,376.05C412.99,375.13,383.05,377.64,381.71,378.80C380.36,379.96,373.50,409.21,374.19,410.85C374.87,412.48,400.57,428.05,402.34,427.90C404.11,427.75,426.85,408.12,427.26,406.40"/>
<path  stroke-width="0.4mm" fill="none" d="M435.50,405.99C435.88,403.74,418.69,369.15,416.67,368.09C414.65,367.04,376.44,372.69,374.81,374.29C373.18,375.88,366.74,413.97,367.76,416.02C368.77,418.06,403.01,435.95,405.27,435.61C407.53,435.28,435.12,408.25,435.50,405.99"/>
<path  stroke-width="0.4mm" fill="none" d="M443.57,406.14C443.96,403.38,421.81,361.69,419.31,360.46C416.80,359.24,370.30,367.42,368.36,369.42C366.42,371.43,359.83,418.18,361.14,420.64C362.45,423.10,404.87,443.82,407.62,443.33C410.37,442.85,443.18,408.91,443.57,406.14"/>
<path  stroke-width="0.4mm" fill="none" d="M451.37,408.05C451.88,404.79,426.47,355.12,423.53,353.63C420.59,352.14,365.50,360.96,363.17,363.29C360.84,365.63,352.20,420.75,353.71,423.68C355.21,426.62,404.96,451.87,408.22,451.35C411.47,450.83,450.86,411.31,451.37,408.05"/>
<path  stroke-width="0.4mm" fill="none" d="M458.69,412.49C459.48,408.77,433.31,349.95,430.01,348.05C426.72,346.14,362.69,352.86,359.86,355.40C357.04,357.95,343.63,420.91,345.18,424.39C346.73,427.87,402.47,460.07,406.26,459.67C410.04,459.28,457.89,416.21,458.69,412.49"/>
</g>
<path stroke="#000000" stroke-width="0.4mm" fill="none" d="M465.17,419.41C466.40,415.28,442.15,346.47,438.60,344.02C435.05,341.57,362.11,343.37,358.69,345.99C355.26,348.61,334.43,418.53,335.87,422.60C337.30,426.67,397.36,468.09,401.67,467.98C405.98,467.87,463.94,423.55,465.17,419.41"/>
<path stroke="#000000" stroke-width="0.4mm" fill="none" d="M470.71,427.86C472.47,423.38,452.07,344.43,448.35,341.36C444.63,338.30,363.24,333.31,359.17,335.90C355.11,338.49,325.21,414.35,326.42,419.02C327.62,423.68,390.54,475.56,395.35,475.86C400.16,476.15,468.94,432.35,470.71,427.86"/>
<path stroke="#000000" stroke-width="0.4mm" fill="none" d="M475.77,436.25C478.07,431.45,461.75,342.81,457.89,339.14C454.04,335.47,364.69,323.60,360.01,326.13C355.32,328.67,316.42,409.97,317.39,415.21C318.35,420.45,383.66,482.57,388.94,483.27C394.22,483.97,473.48,441.06,475.77,436.25"/>
<path stroke="#000000" stroke-width="0.4mm" fill="none" d="M481.40,442.87C484.12,437.71,470.00,340.01,465.93,335.83C461.86,331.65,364.58,314.89,359.35,317.47C354.11,320.05,308.11,407.39,308.95,413.16C309.78,418.93,378.63,489.67,384.38,490.66C390.13,491.65,478.68,448.03,481.40,442.87"/>
<path stroke="#000000" stroke-width="0.4mm" fill="none" d="M488.63,446.31C491.57,440.69,475.87,334.55,471.43,330.02C467.00,325.49,361.20,307.62,355.52,310.44C349.84,313.26,300.15,408.35,301.08,414.63C302.00,420.90,377.09,497.55,383.34,498.60C389.59,499.66,485.69,451.93,488.63,446.31"/>
<path stroke="#000000" stroke-width="0.4mm" fill="none" d="M497.84,445.74C500.74,439.53,478.74,325.76,473.73,321.09C468.73,316.41,353.72,302.18,347.73,305.49C341.74,308.80,292.66,413.78,293.96,420.50C295.26,427.23,379.94,506.34,386.73,507.18C393.53,508.02,494.94,451.94,497.84,445.74"/>
<path stroke="#000000" stroke-width="0.4mm" fill="none" d="M508.44,441.18C511.06,434.31,478.41,314.20,472.68,309.59C466.94,304.98,342.63,298.91,336.47,302.94C330.32,306.97,286.13,423.33,288.06,430.43C289.99,437.52,387.00,515.50,394.35,515.86C401.69,516.22,505.83,448.06,508.44,441.18"/>
<path stroke="#000000" stroke-width="0.4mm" fill="none" d="M519.29,433.86C521.43,426.30,475.60,301.40,469.07,297.02C462.54,292.64,329.58,297.63,323.40,302.49C317.22,307.35,280.88,435.34,283.59,442.72C286.30,450.10,396.80,524.21,404.65,523.91C412.51,523.62,517.14,441.43,519.29,433.86"/>
<path stroke="#000000" stroke-width="0.4mm" fill="none" d="M529.38,426.16C531.04,417.96,472.15,289.15,464.86,285.03C457.57,280.92,316.87,297.13,310.70,302.79C304.54,308.45,276.47,447.27,279.95,454.89C283.43,462.50,406.79,532.09,415.10,531.13C423.42,530.18,527.72,434.36,529.38,426.16"/>
<path stroke="#000000" stroke-width="0.4mm" fill="none" d="M538.42,420.98C539.75,412.21,470.67,278.82,462.73,274.84C454.79,270.86,306.59,295.35,300.35,301.66C294.12,307.98,271.60,456.50,275.68,464.38C279.77,472.27,414.06,539.57,422.82,538.13C431.58,536.68,537.09,429.76,538.42,420.98"/>
<path stroke="#000000" stroke-width="0.4mm" fill="none" d="M546.52,420.87C547.84,411.58,473.55,271.23,465.13,267.10C456.70,262.97,300.26,290.26,293.73,296.99C287.20,303.73,264.80,460.95,269.19,469.24C273.58,477.53,416.18,547.41,425.43,545.80C434.67,544.19,545.20,430.16,546.52,420.87"/>
<path stroke="#000000" stroke-width="0.4mm" fill="none" d="M553.62,427.13C555.34,417.39,482.01,266.93,473.27,262.28C464.54,257.63,298.78,280.89,291.66,287.75C284.55,294.62,255.44,459.46,259.77,468.35C264.10,477.24,411.88,555.86,421.67,554.49C431.47,553.11,551.90,436.87,553.62,427.13"/>
<path stroke="#000000" stroke-width="0.4mm" fill="none" d="M559.21,439.34C561.71,429.24,495.44,266.23,486.61,260.74C477.78,255.25,302.27,267.89,294.32,274.59C286.37,281.29,244.16,452.12,248.07,461.76C251.99,471.39,401.41,564.32,411.79,563.58C422.16,562.83,556.72,449.43,559.21,439.34"/>
<path stroke="#000000" stroke-width="0.4mm" fill="none" d="M562.87,455.29C566.38,444.97,511.65,268.71,502.92,262.19C494.18,255.66,309.64,253.24,300.73,259.54C291.83,265.83,232.50,440.59,235.74,451.00C238.97,461.42,386.84,571.84,397.74,571.99C408.65,572.13,559.36,465.62,562.87,455.29"/>
<path stroke="#000000" stroke-width="0.4mm" fill="none" d="M565.15,471.60C569.69,461.13,527.69,272.62,519.13,265.06C510.58,257.51,318.31,239.20,308.48,245.00C298.65,250.80,221.83,428.00,224.31,439.14C226.79,450.28,371.57,578.11,382.93,579.19C394.30,580.27,560.61,482.07,565.15,471.60"/>
<path stroke="#000000" stroke-width="0.4mm" fill="none" d="M567.81,484.76C573.18,474.12,540.92,274.99,532.46,266.59C524.01,258.19,324.66,227.35,314.06,232.79C303.46,238.24,212.51,418.30,214.42,430.07C216.33,441.83,359.47,583.97,371.25,585.79C383.03,587.61,562.44,495.40,567.81,484.76"/>
<path stroke="#000000" stroke-width="0.4mm" fill="none" d="M573.06,492.02C578.89,481.04,549.62,272.79,540.99,263.85C532.36,254.91,325.25,218.39,314.08,223.84C302.91,229.28,204.18,414.97,205.91,427.28C207.64,439.58,353.73,590.86,365.97,593.02C378.20,595.18,567.22,502.99,573.06,492.02"/>
<path stroke="#000000" stroke-width="0.4mm" fill="none" d="M582.16,491.83C587.98,480.28,552.82,264.24,543.63,255.13C534.45,246.03,318.11,212.71,306.61,218.63C295.11,224.55,196.57,420.01,198.65,432.78C200.73,445.54,356.17,599.65,368.95,601.62C381.73,603.59,576.34,503.38,582.16,491.83"/>
<path stroke="#000000" stroke-width="0.4mm" fill="none" d="M594.61,484.08C599.95,471.74,550.19,249.78,540.10,240.89C530.01,232.01,303.54,210.74,291.97,217.59C280.41,224.44,190.19,433.25,193.13,446.37C196.07,459.49,366.79,609.81,380.18,611.07C393.56,612.33,589.28,496.42,594.61,484.08"/></g></svg>