<?xml version="1.0" standalone="no"?>
<svg id="SvgjsSvg1001" width="600" height="600" xmlns="http://www.w3.org/2000/svg" version="1.1" xmlns:xlink="http://www.w3.org/1999/xlink" xmlns:svgjs="http://svgjs.com/svgjs" class="svg-paper" viewBox="0 0 600 600">
<title id="SvgjsTitle1492">x=max(cos((y-y))*sin(x),y)|y=(sin(y)-(min(cos(sqrt(x*x + y*y)),sin(x))+cos(sqrt(x*x + y*y))))|dTest=0.0|sd=0.9|sm=0.2|ts=0.05 | generated with FlowLines</title>
<g id="SvgjsG1493">
<path id="SvgjsPolyline1494" d="M0,521.08 10.52,535.68 23.94,551.83 38.24,567.21 69.83,599.26" fill="none" stroke="#262626" stroke-width="0.2"/>
<path id="SvgjsPolyline1495" d="M0.1,420.48 10.61,442.05 16.39,452.57 22.56,462.86 29.16,472.88 36.19,482.61 41.74,489.69 51.42,501.15 61.66,512.11 74.51,524.71 81.22,530.71 86.06,534.24 91.37,537.03 94.24,537.89 97.22,538.08 100.09,537.28 102.48,535.49 104.26,533.08 105.59,530.39 106.6,527.57 108.04,521.75 109.69,509.87 110.42,497.89 111.19,455.9 111.48,299.9 111.81,290.91 113.13,278.98 114.69,270.12 117.41,258.43 120.76,246.91 124.68,235.57 129.14,224.43 134.1,213.51 139.56,202.82 145.5,192.4 151.94,182.28 158.87,172.48 166.29,163.05 174.18,154.01 182.53,145.39 191.31,137.21 198.16,131.38 207.6,123.98 217.39,117.03 227.49,110.56 237.86,104.52 253.85,96.26 273.05,87.76 289.89,81.41 309.91,75.08 330.26,69.91 347.92,66.43 368.72,63.53 386.66,62.09 401.65,61.63 413.65,61.77 425.63,62.36 440.57,63.73 461.34,66.82 496.54,74.31 517.26,77.73 541.09,80.61 597.8,86.33" fill="none" stroke="#262626" stroke-width="0.2"/>

  <!-- <circle r="2" fill="rgba(64, 64, 64,0.4)">
    <animateMotion
      dur="25s"
      repeatCount="indefinite"
      path="M0.1,420.48 10.61,442.05 16.39,452.57 22.56,462.86 29.16,472.88 36.19,482.61 41.74,489.69 51.42,501.15 61.66,512.11 74.51,524.71 81.22,530.71 86.06,534.24 91.37,537.03 94.24,537.89 97.22,538.08 100.09,537.28 102.48,535.49 104.26,533.08 105.59,530.39 106.6,527.57 108.04,521.75 109.69,509.87 110.42,497.89 111.19,455.9 111.48,299.9 111.81,290.91 113.13,278.98 114.69,270.12 117.41,258.43 120.76,246.91 124.68,235.57 129.14,224.43 134.1,213.51 139.56,202.82 145.5,192.4 151.94,182.28 158.87,172.48 166.29,163.05 174.18,154.01 182.53,145.39 191.31,137.21 198.16,131.38 207.6,123.98 217.39,117.03 227.49,110.56 237.86,104.52 253.85,96.26 273.05,87.76 289.89,81.41 309.91,75.08 330.26,69.91 347.92,66.43 368.72,63.53 386.66,62.09 401.65,61.63 413.65,61.77 425.63,62.36 440.57,63.73 461.34,66.82 496.54,74.31 517.26,77.73 541.09,80.61 597.8,86.33" />
  </circle> -->


<path  id="SvgjsPolyline1496" d="M0.9,349.27 13.49,366.08 25.3,379.66 31.64,386.04 38.36,392.03 43.07,395.74 50.5,400.81 55.69,403.82 61.15,406.31 66.89,408.01 69.86,408.47 75.84,408.29 78.75,407.56 81.5,406.39 84.05,404.81 86.35,402.88 90.2,398.3 91.8,395.76 94.47,390.39 96.59,384.78 98.31,379.03 100.89,367.32 103.08,352.48 104.82,334.57 107.53,286.65 109.18,274.76 112.34,260.1 116.51,245.7 122.69,228.8 130.02,212.36 136.99,199.08 141.54,191.32 148.04,181.23 158.71,166.74 164.45,159.81 172.52,150.93 181.04,142.48 187.71,136.44 196.95,128.78 204.1,123.32 211.43,118.1 221.49,111.56 239.76,101.21 258.68,92.11 275.33,85.26 292.29,79.25 309.53,74.07 326.99,69.72 344.65,66.22 362.46,63.61 380.37,61.93 395.36,61.26 407.36,61.22 419.35,61.62 431.32,62.47 443.25,63.76 461.04,66.51 493.29,73.48 513.98,77.08 537.78,80.11 597.47,86.18" fill="none" stroke="#262626" stroke-width="0.2"/>

    <!-- <circle r="2" fill="rgba(64, 64, 64,0.4)">
    <animateMotion
      dur="20s"
      begin="2s"
      repeatCount="indefinite"
      path="M0.9,349.27 13.49,366.08 25.3,379.66 31.64,386.04 38.36,392.03 43.07,395.74 50.5,400.81 55.69,403.82 61.15,406.31 66.89,408.01 69.86,408.47 75.84,408.29 78.75,407.56 81.5,406.39 84.05,404.81 86.35,402.88 90.2,398.3 91.8,395.76 94.47,390.39 96.59,384.78 98.31,379.03 100.89,367.32 103.08,352.48 104.82,334.57 107.53,286.65 109.18,274.76 112.34,260.1 116.51,245.7 122.69,228.8 130.02,212.36 136.99,199.08 141.54,191.32 148.04,181.23 158.71,166.74 164.45,159.81 172.52,150.93 181.04,142.48 187.71,136.44 196.95,128.78 204.1,123.32 211.43,118.1 221.49,111.56 239.76,101.21 258.68,92.11 275.33,85.26 292.29,79.25 309.53,74.07 326.99,69.72 344.65,66.22 362.46,63.61 380.37,61.93 395.36,61.26 407.36,61.22 419.35,61.62 431.32,62.47 443.25,63.76 461.04,66.51 493.29,73.48 513.98,77.08 537.78,80.11 597.47,86.18" />
  </circle> -->

<path id="SvgjsPolyline1497" d="M132.17,599.94 127.42,592.3 124.74,586.93 121.28,578.63 119.39,572.94 117.19,564.21 115.61,555.35 113.41,534.47 112.15,507.5 111.74,477.51 111.64,294.51 112.67,282.56 115.21,267.78 118.87,253.23 123.48,238.96 128.93,224.99 136.52,208.67 143.7,195.5 151.64,182.78 156.77,175.39 164.05,165.84 169.81,158.94 177.91,150.08 186.46,141.66 193.14,135.64 200.05,129.87 209.56,122.55 216.92,117.37 227.01,110.87 237.37,104.82 247.96,99.18 258.76,93.96 269.75,89.13 280.9,84.69 292.19,80.63 306.48,76.08 318.04,72.87 329.7,70.04 341.45,67.6 353.28,65.57 365.17,63.94 386.08,62.12 398.08,61.68 410.07,61.69 422.07,62.14 434.03,63.05 445.95,64.4 457.82,66.2 469.61,68.43 481.31,71.07" fill="none" stroke="#262626" stroke-width="0.2"/>



<polyline id="SvgjsPolyline1498" points="248.77,307.02 247.29,304.48 247.25,301.5 248.12,298.63 249.62,296.04 251.62,293.81 254.12,292.15 257.07,291.8 259.23,293.79 259.9,296.68 259.59,299.66 258.62,302.49 257.12,305.09 255.16,307.35 252.75,309.13 249.92,310.1 246.99,309.6 244.89,307.52 243.94,304.69 243.88,301.7 244.43,298.75 245.42,295.92 248.37,290.71 252.26,286.15 254.51,284.17 259.55,280.93 262.32,279.79 265.24,279.1 268.23,279.01 271.15,279.67 273.77,281.13 275.9,283.23 277.5,285.76 278.62,288.54 279.7,294.43 279.8,297.43 279.29,303.4 277.17,312.13 273.7,320.43 269.01,328.1 263.17,334.94 258.65,338.87 256.19,340.6 253.61,342.13 248.15,344.59 242.36,346.16 239.4,346.6 233.41,346.76 227.47,345.96 224.56,345.22 218.97,343.07 213.77,340.07 209.11,336.3 205.11,331.85 203.38,329.39 201.84,326.82 199.38,321.35 197.11,312.66 196.37,303.7 196.83,294.71 198.85,282.89 202.05,271.33 206.14,260.05 212.19,246.33 216.25,238.3 222.1,227.82 231.77,212.65 237,205.32 244.37,195.85 256.32,182.4 280.26,159.69 302.88,139.98 324.15,123.36 333.94,116.43 344,109.89 354.35,103.82 365,98.29 375.94,93.36 387.16,89.1 398.62,85.55 410.28,82.73 422.1,80.67 434.03,79.37 449.01,78.77 464,79.28 475.94,80.42 496.73,83.44 514.61,85.45 532.55,86.9 580.46,89.92 598.39,91.44" fill="none" stroke="#262626" stroke-width="0.2"/>


<polyline id="SvgjsPolyline1499" points="0.08,313.53 7.48,318.63 12.79,321.43 18.4,323.56 21.3,324.3 27.25,324.97 33.22,324.4 38.9,322.53 46.61,317.91 51.2,314.05 55.19,309.58 58.68,304.69 61.73,299.53 65.66,291.44 70.96,277.41 76.93,257.28 80.84,245.94 86.51,232.05 92.94,218.5 100.12,205.34 108.03,192.59 116.67,180.33 126.03,168.61 138.18,155.34 149.03,144.99 160.49,135.31 174.95,124.6 192.57,113.18 210.8,102.76 226.95,94.81 243.58,87.93 260.51,81.83 280.56,75.58 297.96,70.96 318.46,66.44 339.16,62.9 357.02,60.7 374.97,59.32 392.96,58.8 413.95,59.33 425.92,60.2 437.85,61.49 449.72,63.19 461.54,65.3 493.73,72.55 517.37,76.69 538.19,79.37 597.86,85.65" fill="none" stroke="#262626" stroke-width="0.2"/>



<polyline id="SvgjsPolyline1500" points="192.44,598.77 185.91,588.71 178.34,575.76 164.62,549.09 154.56,527.3 141.33,497.06 136.79,485.96 133.71,477.5 130,466.09 126.74,454.54 123.9,442.88 121.5,431.13 117.88,407.41 115.42,380.52 113.8,344.56 113.01,296.57 114.24,281.63 115.67,272.74 117.52,263.94 120.59,252.33 125.25,238.08 129.59,226.9 135.74,213.21 142.65,199.9 148.74,189.56 157.04,177.07 164.22,167.46 171.89,158.23 180.02,149.41 188.6,141.02 197.59,133.07 206.95,125.57 216.66,118.52 229.25,110.36 239.62,104.33 250.23,98.72 263.78,92.29 277.6,86.47 288.83,82.25 300.2,78.41 314.58,74.14 329.13,70.48 343.81,67.43 364.56,64.23 385.47,62.33 406.46,61.78 427.44,62.61 442.37,64.05 457.22,66.18 469.01,68.38 495.39,74.15 516.1,77.62 539.92,80.54 599.61,86.58" fill="none" stroke="#262626" stroke-width="0.2"/>



<path id="SvgjsPolyline1501" d="M254.97,305.82 252.48,307.47 249.52,307.71 247.41,305.67 246.87,302.75 247.38,299.8 248.59,297.06 250.32,294.61 252.48,292.55 255.1,291.08 258.07,290.94 260.29,292.88 261.19,295.72 261.15,298.72 260.48,301.64 259.33,304.4 257.77,306.96 255.84,309.26 253.56,311.21 250.94,312.66 248.04,313.38 245.07,313.06 242.51,311.54 240.73,309.14 239.75,306.31 239.42,303.33 240.14,297.39 240.99,294.52 243.37,289.02 248.19,281.43 254.1,274.65 258.53,270.6 265.81,265.33 273.78,261.17 279.43,259.14 285.28,257.85 291.26,257.43 297.22,258.05 302.94,259.83 305.62,261.18 310.44,264.73 314.38,269.24 317.38,274.43 321.5,285.69 337.82,337.17 342.85,351.3 346.46,359.54 350.73,367.46 354.06,372.44 357.88,377.07 359.98,379.21 364.61,383.01 369.77,386.06 375.36,388.23 378.26,388.98 384.2,389.83 390.2,389.88 399.11,388.71 407.77,386.28 416.06,382.79 421.34,379.94 428.81,374.93 433.45,371.13 437.8,367 441.83,362.56 447.25,355.38 450.45,350.3 454.63,342.34 458.15,334.05 460.17,328.41 464.28,313.98 467.9,296.36 472.23,269.71 475,258.04 479.32,243.67 485.65,226.83 491.93,213.21 499.26,200.13 506.02,190.22 513.74,181.04 517.99,176.8 524.77,170.89 536.69,161.8 549.36,153.77 560,148.22 573.83,142.43 588.14,137.96 599.85,135.34" fill="none" stroke="#262626" stroke-width="0.2"/>

  <!-- <circle r="2" fill="rgba(64, 64, 64,0.4)">
    <animateMotion
      dur="18s"
      repeatCount="indefinite"
      path="M254.97,305.82 252.48,307.47 249.52,307.71 247.41,305.67 246.87,302.75 247.38,299.8 248.59,297.06 250.32,294.61 252.48,292.55 255.1,291.08 258.07,290.94 260.29,292.88 261.19,295.72 261.15,298.72 260.48,301.64 259.33,304.4 257.77,306.96 255.84,309.26 253.56,311.21 250.94,312.66 248.04,313.38 245.07,313.06 242.51,311.54 240.73,309.14 239.75,306.31 239.42,303.33 240.14,297.39 240.99,294.52 243.37,289.02 248.19,281.43 254.1,274.65 258.53,270.6 265.81,265.33 273.78,261.17 279.43,259.14 285.28,257.85 291.26,257.43 297.22,258.05 302.94,259.83 305.62,261.18 310.44,264.73 314.38,269.24 317.38,274.43 321.5,285.69 337.82,337.17 342.85,351.3 346.46,359.54 350.73,367.46 354.06,372.44 357.88,377.07 359.98,379.21 364.61,383.01 369.77,386.06 375.36,388.23 378.26,388.98 384.2,389.83 390.2,389.88 399.11,388.71 407.77,386.28 416.06,382.79 421.34,379.94 428.81,374.93 433.45,371.13 437.8,367 441.83,362.56 447.25,355.38 450.45,350.3 454.63,342.34 458.15,334.05 460.17,328.41 464.28,313.98 467.9,296.36 472.23,269.71 475,258.04 479.32,243.67 485.65,226.83 491.93,213.21 499.26,200.13 506.02,190.22 513.74,181.04 517.99,176.8 524.77,170.89 536.69,161.8 549.36,153.77 560,148.22 573.83,142.43 588.14,137.96 599.85,135.34" />
  </circle> -->


<polyline id="SvgjsPolyline1502" points="257.41,292.65 258.99,295.13 259.16,298.11 258.45,301.01 257.09,303.69 255.2,306.01 252.78,307.76 249.87,308.4 247.32,306.93 246.23,304.17 246.3,301.19 247.12,298.31 248.47,295.63 250.24,293.21 252.36,291.09 254.82,289.38 257.61,288.3 260.59,288.39 263.06,290.05 264.51,292.65 265.12,295.58 265.11,298.58 264.65,301.54 262.7,307.2 259.63,312.35 257.73,314.66 253.22,318.61 250.64,320.13 247.87,321.27 244.95,321.93 241.95,322.04 239,321.52 236.24,320.37 233.8,318.63 231.79,316.41 230.24,313.84 229.13,311.06 228.43,308.15 228.07,305.17 228.2,299.18 229.94,290.36 231.83,284.67 234.16,279.14 239.81,268.56 246.47,258.58 255.88,246.91 266.29,236.11 272.95,230.07 279.91,224.36 292.09,215.6 312.33,202.72 324.26,193.63 331.07,187.75 339.84,179.56 369.51,149.83 384.88,135.54 394.12,127.88 401.32,122.48 408.78,117.44 416.5,112.82 429.95,106.2 435.52,103.97 444.05,101.1 455.69,98.2 470.53,96.07 485.51,95.51 512.5,96.34 566.5,96.6 581.49,96.96 599.47,97.88" fill="none" stroke="#262626" stroke-width="0.2"/><polyline id="SvgjsPolyline1503" points="0.87,269.72 6.83,269.17 9.74,268.45 15.3,266.21 22.95,261.48 29.81,255.68 33.88,251.27 37.61,246.57 51.42,226.94 63.88,210.04 73.19,198.28 82.9,186.85 93.07,175.82 105.89,163.19 119.38,151.28 131.12,141.94 143.27,133.15 158.36,123.34 176.53,112.81 195.05,102.91 211.24,95.06 225.02,89.13 236.24,84.87 253.36,79.31 270.66,74.36 288.12,69.97 305.71,66.18 326.4,62.55 344.24,60.18 362.16,58.53 380.14,57.66 398.13,57.62 419.11,58.68 439.98,60.97 460.68,64.48 492.84,71.85 516.46,76.11 540.25,79.21 599.91,85.61" fill="none" stroke="#262626" stroke-width="0.2"/><polyline id="SvgjsPolyline1504" points="249.59,598.46 242.9,585.04 236.61,571.42 211.15,513.79 197.94,486.86 190.71,473.72 181.5,458.26 152.49,412.71 146.48,402.32 142.32,394.34 137.36,383.42 133.15,372.19 129.72,360.69 127.01,349 123.59,328.29 121.89,313.38 121.21,304.41 121.21,295.41 121.84,286.44 123.02,277.52 124.67,268.67 127.5,257.01 130.96,245.52 134.99,234.22 139.55,223.12 144.61,212.24 150.16,201.6 156.2,191.23 162.72,181.16 169.72,171.42 177.2,162.03 187.19,150.85 195.69,142.38 204.6,134.34 213.89,126.75 223.53,119.61 236.03,111.31 246.34,105.17 259.56,98.1 273.12,91.67 284.16,86.99 298.2,81.69 312.45,77.02 326.89,72.98 338.57,70.2 350.33,67.85 362.17,65.92 383.04,63.6 395.02,62.9 407.02,62.66 428,63.36 442.94,64.73 457.79,66.82 469.59,68.98 495.99,74.66 516.71,78.06 540.54,80.91 597.26,86.53" fill="none" stroke="#262626" stroke-width="0.2"/><polyline id="SvgjsPolyline1505" points="254.73,290.92 257.66,290.36 260.25,291.77 261.57,294.44 261.87,297.41 261.48,300.38 260.58,303.24 259.27,305.94 257.6,308.43 255.6,310.66 253.27,312.55 250.64,313.98 247.75,314.77 244.76,314.66 242.01,313.49 239.87,311.41 238.46,308.77 237.72,305.87 237.51,302.88 237.71,299.89 239.05,294.05 241.27,288.48 244.13,283.21 247.47,278.23 251.21,273.54 255.29,269.14 259.67,265.05 266.76,259.5 274.38,254.73 279.74,252.03 285.29,249.75 291,247.93 299.82,246.13 305.79,245.6 314.78,245.89 320.7,246.85 329.29,249.48 345.44,257.43 350.96,259.78 356.72,261.43 359.68,261.9 365.67,262 371.61,261.16 377.35,259.43 382.65,256.65 385.11,254.92 389.62,250.98 393.64,246.52 397.23,241.72 403.67,231.6 428.38,190.45 436.72,177.98 445.73,165.99 455.65,154.75 464.38,146.51 473.88,139.2 484.18,133.06 492.38,129.35 500.9,126.48 518.39,122.21 538.95,117.95 553.74,115.47 568.62,113.56 583.56,112.28 598.55,111.7" fill="none" stroke="#262626" stroke-width="0.2"/><polyline id="SvgjsPolyline1506" points="255.28,310.67 252.91,312.5 250.23,313.84 247.31,314.47 244.34,314.13 241.72,312.7 239.79,310.42 238.6,307.67 238.06,304.73 238.02,301.73 238.37,298.75 239.95,292.97 243.8,284.85 248.87,277.42 252.76,272.85 259.21,266.59 266.33,261.08 274.02,256.42 282.21,252.71 287.91,250.85 296.74,249.11 302.72,248.72 311.68,249.45 317.5,250.88 320.32,251.89 325.71,254.52 330.63,257.95 332.87,259.95 336.87,264.41 351.55,283.39 361.3,294.79 369.93,303.12 374.64,306.84 379.67,310.1 387.78,313.98 390.6,315.02 396.42,316.42 399.41,316.74 405.39,316.49 408.33,315.92 411.21,315.05 416.63,312.52 421.55,309.09 427.89,302.72 431.49,297.92 436.09,290.19 439.93,282.06 443.19,273.67 449.43,253.62 454.34,239.45 458.74,228.29 464.84,214.58 471.69,201.24 479.44,188.4 486.43,178.65 494.26,169.57 503.04,161.4 510.29,156.06 523.27,148.56 539.5,140.78 553.48,135.36 567.82,130.97 582.44,127.63 597.26,125.36" fill="none" stroke="#262626" stroke-width="0.2"/><polyline id="SvgjsPolyline1507" points="255.33,291.34 258.27,291.65 260.11,293.96 260.63,296.89 260.3,299.87 259.37,302.72 257.96,305.36 256.14,307.74 253.92,309.76 251.33,311.25 248.41,311.91 245.49,311.29 243.23,309.36 241.93,306.68 241.45,303.72 241.58,300.73 242.16,297.79 244.28,292.19 247.32,287.02 253.09,280.13 260.02,274.41 265.2,271.39 270.79,269.21 276.68,268.14 279.68,268.14 282.64,268.56 285.5,269.45 288.17,270.81 290.58,272.61 292.66,274.76 295.83,279.84 297.82,285.49 298.85,291.39 299.13,297.39 297.88,363.37 296.31,399.34 295.36,408.28 294.04,414.13 292.78,416.84 290.72,418.99 287.98,420.17 285.02,420.67 279.03,420.83 267.07,419.87 258.36,417.65 247.1,413.51 230.71,406.08 212.14,396.28 194.16,385.44 179.34,375.21 169.91,367.81 163.19,361.82 157.18,355.13 151.98,347.79 147.56,339.95 142.76,328.96 140.2,320.34 139.07,314.45 138.36,308.49 138.06,296.5 139.01,284.55 141.59,269.77 145.39,255.27 150.2,241.06 157.11,224.44 163.72,210.98 172.64,195.35 180.87,182.81 191.65,168.4 201.35,156.96 211.7,146.11 224.99,133.97 236.68,124.58 248.88,115.86 261.53,107.8 277.24,99.02 293.45,91.2 310.1,84.35 327.11,78.49 344.44,73.64 362.03,69.83 379.82,67.12 397.75,65.51 409.74,65.07 421.74,65.13 433.72,65.68 445.68,66.74 463.5,69.21 495.85,75.73 516.59,79 537.45,81.43 597.18,87.14" fill="none" stroke="#262626" stroke-width="0.2"/>



<path id="SvgjsPolyline1508" d="M306.27,599 309.94,575.28 317.76,509.75 321.5,486.04 324,474.31 327.27,462.77 330.53,454.38 334.78,446.45 338.28,441.59 342.33,437.16 351.57,429.53 356.61,426.27 361.86,423.36 394.45,408.09 405.09,402.55 412.85,397.99 420.35,393.01 427.51,387.55 434.24,381.59 440.46,375.09 446.09,368.07 452.57,357.98 456.65,349.96 461.13,338.83 464.66,327.36 467.45,315.69 470.16,300.94 473.98,274.22 476.48,262.48 479.63,250.9 485.44,233.87 491.27,220.06 498.11,206.71 504.41,196.5 511.61,186.91 519.83,178.17 526.55,172.19 533.55,166.54 545.85,157.96 558.89,150.55 569.79,145.55 583.91,140.5 598.45,136.82" fill="none" stroke="#262626" stroke-width="0.2"/>

   <!-- <circle r="2" fill="rgba(64, 64, 64,0.4)">
    <animateMotion
      dur="15s"
      begin="10s"
      repeatCount="indefinite"
      path="M306.27,599 309.94,575.28 317.76,509.75 321.5,486.04 324,474.31 327.27,462.77 330.53,454.38 334.78,446.45 338.28,441.59 342.33,437.16 351.57,429.53 356.61,426.27 361.86,423.36 394.45,408.09 405.09,402.55 412.85,397.99 420.35,393.01 427.51,387.55 434.24,381.59 440.46,375.09 446.09,368.07 452.57,357.98 456.65,349.96 461.13,338.83 464.66,327.36 467.45,315.69 470.16,300.94 473.98,274.22 476.48,262.48 479.63,250.9 485.44,233.87 491.27,220.06 498.11,206.71 504.41,196.5 511.61,186.91 519.83,178.17 526.55,172.19 533.55,166.54 545.85,157.96 558.89,150.55 569.79,145.55 583.91,140.5 598.45,136.82" />
  </circle> -->



<path id="SvgjsPolyline1509" d="M1.52,206.73 10.46,205.78 19.16,203.52 27.54,200.24 35.59,196.22 43.36,191.69 53.42,185.15 99.9,152.15 124.98,135.69 140.43,126.47 153.56,119.2 191.09,100.36 215.76,89.41 226.95,85.07 238.3,81.17 252.69,76.92 267.18,73.07 296.43,66.43 311.18,63.69 326,61.36 340.88,59.49 355.81,58.09 367.79,57.33 382.78,56.88 397.78,56.99 412.76,57.69 433.67,59.7 451.46,62.38 466.18,65.29 495.39,72.11 519.02,76.26 542.83,79.3 599.5,85.41" fill="none" stroke="#262626" stroke-width="0.2"/>


<path id="SvgjsPolyline1510" d="M286.39,599.85 268.81,520.79 262.98,497.51 259.58,486 255.62,474.67 252.16,466.37 248.14,458.32 243.47,450.63 238.08,443.42 232.13,436.67 223.67,428.17 214.75,420.13 205.55,412.43 170.37,384.37 165.9,380.37 159.65,373.9 152.28,364.44 146.1,354.16 141.1,343.26 137.13,331.94 133.43,317.41 132.56,311.47 131.96,302.5 131.99,296.5 132.58,287.52 133.74,278.6 135.4,269.75 137.48,261 139.95,252.34 142.76,243.79 146.99,232.57 150.51,224.28 155.64,213.44 161.26,202.83 165.78,195.05 172.22,184.93 180.93,172.72 188.41,163.33 196.33,154.32 206.83,143.61 215.69,135.52 227.28,126.01 236.95,118.89 249.45,110.61 259.76,104.48 272.99,97.41 283.82,92.23 294.83,87.47 308.84,82.11 323.09,77.42 337.54,73.4 358.05,68.95 369.9,67.04 381.81,65.59 402.76,64.22 414.76,64.11 426.76,64.48 441.71,65.63 459.55,67.98 471.36,70.12 494.84,75.1 518.54,78.88 539.4,81.29 599.11,87.12" fill="none" stroke="#262626" stroke-width="0.2"/>

    <!-- <circle r="2" fill="rgba(64, 64, 64,0.4)">
    <animateMotion
      dur="15s"
      begin="10s"
      repeatCount="indefinite"
      path="M286.39,599.85 268.81,520.79 262.98,497.51 259.58,486 255.62,474.67 252.16,466.37 248.14,458.32 243.47,450.63 238.08,443.42 232.13,436.67 223.67,428.17 214.75,420.13 205.55,412.43 170.37,384.37 165.9,380.37 159.65,373.9 152.28,364.44 146.1,354.16 141.1,343.26 137.13,331.94 133.43,317.41 132.56,311.47 131.96,302.5 131.99,296.5 132.58,287.52 133.74,278.6 135.4,269.75 137.48,261 139.95,252.34 142.76,243.79 146.99,232.57 150.51,224.28 155.64,213.44 161.26,202.83 165.78,195.05 172.22,184.93 180.93,172.72 188.41,163.33 196.33,154.32 206.83,143.61 215.69,135.52 227.28,126.01 236.95,118.89 249.45,110.61 259.76,104.48 272.99,97.41 283.82,92.23 294.83,87.47 308.84,82.11 323.09,77.42 337.54,73.4 358.05,68.95 369.9,67.04 381.81,65.59 402.76,64.22 414.76,64.11 426.76,64.48 441.71,65.63 459.55,67.98 471.36,70.12 494.84,75.1 518.54,78.88 539.4,81.29 599.11,87.12" />
  </circle> -->




<polyline id="SvgjsPolyline1511" points="356.59,599.98 416.86,581.65 434.22,576.89 443.03,575.09 448.99,574.35 463.97,574.65 469.91,573.93 472.77,573.03 475.43,571.65 477.76,569.77 479.69,567.47 481.21,564.89 482.41,562.15 484.12,556.4 485.68,547.54 487.05,532.6 487.92,511.62 488.4,454.63 488.56,295.63 489.18,286.65 490.33,277.72 491.95,268.87 494.76,257.21 498.24,245.73 501.28,237.25 505.91,226.19 509.86,218.1 514.26,210.25 519.16,202.7 524.62,195.55 530.51,188.75 538.89,180.16 545.56,174.12 554.99,166.7 562.44,161.66 570.2,157.11 578.24,153.07 589.35,148.53 597.91,145.77" fill="none" stroke="#262626" stroke-width="0.2"/>



<path id="SvgjsPolyline1512" d="M328.12,599.68 332.44,595.53 338.34,588.73 343.67,581.48 350.12,571.36 358.84,555.62 385.32,501.78 392.21,488.46 399.47,475.33 407.17,462.46 415.31,449.87 439.5,415.53 447.82,403.05 455.4,390.11 460.67,379.33 464.09,371.01 467.91,359.64 470.26,350.95 472.81,339.22 474.8,327.39 476.37,315.5 479.94,279.68 482.07,267.87 484.14,259.11 488.39,244.73 493.58,230.66 499.75,216.99 505.48,206.45 510.32,198.86 513.83,194 521.62,184.88 528.02,178.55 534.73,172.55 546.58,163.37 559.26,155.37 572.68,148.68 583.86,144.33 598.27,140.19" fill="none" stroke="#262626" stroke-width="0.2"/>

    <!-- <circle r="2" fill="rgba(64, 64, 64,0.4)">
    <animateMotion
      dur="12s"
      begin="5s"
      repeatCount="indefinite"
      path="M328.12,599.68 332.44,595.53 338.34,588.73 343.67,581.48 350.12,571.36 358.84,555.62 385.32,501.78 392.21,488.46 399.47,475.33 407.17,462.46 415.31,449.87 439.5,415.53 447.82,403.05 455.4,390.11 460.67,379.33 464.09,371.01 467.91,359.64 470.26,350.95 472.81,339.22 474.8,327.39 476.37,315.5 479.94,279.68 482.07,267.87 484.14,259.11 488.39,244.73 493.58,230.66 499.75,216.99 505.48,206.45 510.32,198.86 513.83,194 521.62,184.88 528.02,178.55 534.73,172.55 546.58,163.37 559.26,155.37 572.68,148.68 583.86,144.33 598.27,140.19" />
  </circle> -->


<polyline id="SvgjsPolyline1513" points="0.11,154.31 8.73,156.88 14.59,158.15 20.53,159.01 29.51,159.5 38.5,159.04 44.44,158.25 50.33,157.11 59.05,154.86 70.43,151.07 84.34,145.48 100.74,138.05 144.1,117.46 179.65,101.43 204.43,90.71 224.04,83.2 235.43,79.42 246.96,76.1 276.12,69.06 293.75,65.45 308.52,62.83 335.26,59.12 359.17,57.03 380.15,56.26 401.15,56.56 422.1,58 439.96,60.17 454.76,62.65 466.51,65.07 492.77,71.32 516.38,75.65 540.17,78.81 599.81,85.31" fill="none" stroke="#262626" stroke-width="0.2"/>


<path id="SvgjsPolyline1514" d="M348.56,599.53 359.49,594.59 367.46,590.41 375.2,585.82 382.69,580.83 392.23,573.56 399.03,567.67 405.51,561.42 411.65,554.84 417.46,547.97 424.7,538.4 429.77,530.97 437.65,518.2 447.61,499.72 452.75,488.88 457.52,477.87 465.02,458.25 471.4,438.25 475.86,420.81 479.79,400.19 482.13,382.34 483.72,364.41 485.28,334.46 486.45,292.47 487.26,283.51 489.13,271.66 492.52,257.05 496.96,242.73 502.4,228.75 508.93,215.25 516.71,202.44 524.03,192.93 530.05,186.24 536.39,179.86 547.7,170.01 559.91,161.32 572.97,153.96 583.95,149.11 598.18,144.4" fill="none" stroke="#262626" stroke-width="0.2"/>

<!-- 
    <circle r="2" fill="rgba(64, 64, 64,0.4)">
    <animateMotion
      dur="17s"
      begin="18s"
      repeatCount="indefinite"
      path="M348.56,599.53 359.49,594.59 367.46,590.41 375.2,585.82 382.69,580.83 392.23,573.56 399.03,567.67 405.51,561.42 411.65,554.84 417.46,547.97 424.7,538.4 429.77,530.97 437.65,518.2 447.61,499.72 452.75,488.88 457.52,477.87 465.02,458.25 471.4,438.25 475.86,420.81 479.79,400.19 482.13,382.34 483.72,364.41 485.28,334.46 486.45,292.47 487.26,283.51 489.13,271.66 492.52,257.05 496.96,242.73 502.4,228.75 508.93,215.25 516.71,202.44 524.03,192.93 530.05,186.24 536.39,179.86 547.7,170.01 559.91,161.32 572.97,153.96 583.95,149.11 598.18,144.4" />
  </circle> -->


<polyline id="SvgjsPolyline1515" points="524.87,599.54 516.32,591.12 510.31,584.42 504.93,577.21 500.43,569.42 496.96,561.13 494.44,552.49 492.67,543.67 491.09,531.77 489.89,516.82 489.14,498.84 488.59,429.84 488.53,297.84 489,288.86 490.48,276.95 492.79,265.18 495.81,253.57 499.5,242.15 503.84,230.96 508.87,220.07 513.16,212.16 519.63,202.06 525.14,194.95 533.12,185.99 541.68,177.58 550.84,169.84 558.11,164.53 568.29,158.19 576.27,154.02 587.3,149.3 598.7,145.56" fill="none" stroke="#262626" stroke-width="0.2"/><polyline id="SvgjsPolyline1516" points="1.76,95.62 12.02,101.84 25.23,108.94 36.21,113.77 47.6,117.52 56.38,119.49 68.29,120.9 77.29,121.07 89.26,120.26 98.17,119 109.93,116.64 121.57,113.72 135.98,109.56 158.8,102.13 198.15,87.43 215.11,81.42 232.28,76.03 246.79,72.23 267.33,67.85 285.01,64.49 314.65,59.85 344.48,56.66 371.44,55.29 386.44,55.22 401.43,55.69 416.39,56.73 434.28,58.74 457.94,62.75 492.98,70.97 513.62,74.86 537.38,78.18 579.14,82.67" fill="none" stroke="#262626" stroke-width="0.2"/>




<!-- <path id="SvgjsPolyline1517" d="M481.01,0.91 495.05,6.18 509.24,11.04 535.13,18.7 558.43,24.47 599.5,33.26" fill="none" stroke="#262626" stroke-width="0.2"/><polyline id="SvgjsPolyline1518" points="596.06,597.85 586.16,586.59 575.77,575.77 565.02,565.31 534.34,536.62 519.68,521.59 511.94,512.42 504.93,502.69 500.29,494.98 496.41,486.87 494.06,478.19 492.63,469.3 491.19,454.38 490.2,436.4 489.1,388.42 488.7,307.42" fill="none" stroke="#262626" stroke-width="0.2"/>

  <circle r="2" fill="rgba(64, 64, 64,0.4)">
    <animateMotion
      dur="15s"
      begin="8s"
      repeatCount="indefinite"
      path="M481.01,0.91 495.05,6.18 509.24,11.04 535.13,18.7 558.43,24.47 599.5,33.26" />
  </circle> -->



<polyline id="SvgjsPolyline1519" points="599.07,356.53 593.11,357.11 587.11,357 581.17,356.2 575.36,354.7 569.77,352.54 564.47,349.72 557.28,344.34 551.23,337.69 547.95,332.67 545.33,327.28 543.35,321.62 542,315.77 541.21,309.83 540.93,303.84 541.1,294.84 541.62,288.86 543.01,279.97 545.01,271.2 547.54,262.56 550.53,254.08 553.96,245.76 557.8,237.62 562.06,229.69 566.73,222 575.49,209.83 581.36,203.01 587.7,196.62 594.5,190.74 599.3,187.13" fill="none" stroke="#262626" stroke-width="0.2"/>





<polyline id="SvgjsPolyline1520" points="0.26,31.51 45.19,61.45 58.05,69.19 68.67,74.76 79.66,79.57 91.02,83.44 102.68,86.24 114.56,87.91 123.55,88.38 135.54,88.04 144.49,87.16 156.35,85.32 176.87,80.85 226.28,68.23 243.89,64.54 258.7,62.15 294.41,57.61 318.29,55.18 342.23,53.5 366.22,52.77 381.21,52.87 399.2,53.63 414.15,54.84 429.05,56.58 440.91,58.38 455.65,61.14 467.37,63.74 490.65,69.57 514.2,74.18 537.95,77.57 597.58,84.29" fill="none" stroke="#262626" stroke-width="0.2"/><polyline id="SvgjsPolyline1521" points="598.92,525.2 550.99,500.33 530.16,488.42 517.65,480.15 508.11,472.87 503.64,468.88 500.29,463.92 497.06,455.53 494.99,446.78 492.82,431.94 491.5,417 490.41,396.03 489.73,372.04 489.03,303.04 489.34,291.05 490.65,279.12 492.82,267.32 496.56,252.8 501.32,238.58 505.89,227.48 512.62,214.09 518.95,203.9 526.25,194.38 536.36,183.3 545.11,175.09 554.47,167.59 564.42,160.88 574.91,155.06 585.87,150.19 597.21,146.29" fill="none" stroke="#262626" stroke-width="0.2"/>



<path id="SvgjsPolyline1522" d="M598.09,409.31 590.01,413.28 584.4,415.38 578.64,417.05 569.81,418.78 557.85,419.75 551.85,419.74 542.87,419.19 533.94,418.09 522.13,415.98 519.22,415.25 516.47,414.06 513.95,412.45 511.68,410.48 507.93,405.81 503.83,397.82 501.81,392.17 500.19,386.39 497.76,374.64 496.07,362.77 494.36,344.85 493.09,323.89 492.24,299.9 492.81,287.92 494.36,276.03 496.75,264.27 500.73,249.81 504.68,238.48 510.59,224.7 516.19,214.08 522.66,203.99 532,192.26 540.17,183.46 548.94,175.29 558.34,167.83 568.34,161.2 578.89,155.49 587.12,151.84 598.43,147.85" fill="none" stroke="#262626" stroke-width="0.2"/>

    <!-- <circle r="2" fill="rgba(64, 64, 64,0.4)">
    <animateMotion
      dur="20s"
      begin="15s"
      repeatCount="indefinite"
      path="M598.09,409.31 590.01,413.28 584.4,415.38 578.64,417.05 569.81,418.78 557.85,419.75 551.85,419.74 542.87,419.19 533.94,418.09 522.13,415.98 519.22,415.25 516.47,414.06 513.95,412.45 511.68,410.48 507.93,405.81 503.83,397.82 501.81,392.17 500.19,386.39 497.76,374.64 496.07,362.77 494.36,344.85 493.09,323.89 492.24,299.9 492.81,287.92 494.36,276.03 496.75,264.27 500.73,249.81 504.68,238.48 510.59,224.7 516.19,214.08 522.66,203.99 532,192.26 540.17,183.46 548.94,175.29 558.34,167.83 568.34,161.2 578.89,155.49 587.12,151.84 598.43,147.85" />
  </circle> -->




<polyline id="SvgjsPolyline1523" points="599.66,322.84 597.81,320.48 595.18,315.11 593.76,309.29 593.32,303.31 593.7,294.32 594.6,288.4 596.01,282.56 598.88,274.04" fill="none" stroke="#262626" stroke-width="0.2"/><polyline id="SvgjsPolyline1524" points="49.75,1.45 70.69,13.17 83.95,20.18 94.75,25.41 105.76,30.18 117.02,34.33 128.51,37.77 140.21,40.43 149.09,41.89 164.02,43.37 182.01,43.83 200,43.28 241.93,40.91 265.92,40.47 346.88,43.18 364.85,44.19 382.79,45.6 412.58,49.09 439.19,53.68 459.67,58.3 494.47,67.52 517.99,72.25 541.73,75.8 598.31,82.68" fill="none" stroke="#262626" stroke-width="0.2"/><polyline id="SvgjsPolyline1525" points="598.65,465.88 589.79,467.43 577.81,467.96 565.85,467.12 551.07,464.6 542.33,462.46 533.7,459.91 516.79,453.75 511.27,451.4 508.66,449.92 506.39,447.97 504.44,445.69 502.79,443.19 500.18,437.79 497.43,429.23 495.01,417.48 493.09,402.61 491.69,384.66 490.73,363.68 489.59,300.7 490.08,288.71 491.58,276.81 494.59,262.12 497.8,250.56 502.74,236.4 507.45,225.36 512.91,214.68 519.21,204.47 526.48,194.93 536.54,183.81 545.27,175.57 554.6,168.04 564.52,161.29 574.99,155.44 585.94,150.53 597.27,146.6" fill="none" stroke="#262626" stroke-width="0.2"/></g></svg>